<svg width="347" height="148" viewBox="0 0 347 148" fill="none" xmlns="http://www.w3.org/2000/svg">
<path d="M0 20.043C0 8.97354 8.97355 0 20.043 0H326.767C337.837 0 346.81 8.97355 346.81 20.043V45.9329C346.81 57.0024 337.837 65.9759 326.767 65.9759H20.043C8.97356 65.9759 0 57.0024 0 45.9329V20.043Z" fill="#F1F1F1"/>
<path d="M0 102.067C0 90.9976 8.97355 82.0241 20.043 82.0241H326.767C337.837 82.0241 346.81 90.9976 346.81 102.067V127.957C346.81 139.026 337.837 148 326.767 148H20.043C8.97356 148 0 139.026 0 127.957V102.067Z" fill="#F1F1F1"/>
</svg>
