<svg width="47" height="45" viewBox="0 0 47 45" fill="none" xmlns="http://www.w3.org/2000/svg">
<path fill-rule="evenodd" clip-rule="evenodd" d="M29.7667 24H25.0667C24.205 24 23.5 24.675 23.5 25.5V30C23.5 30.825 24.205 31.5 25.0667 31.5H29.7667C30.6283 31.5 31.3333 30.825 31.3333 30V25.5C31.3333 24.675 30.6283 24 29.7667 24ZM29.7667 9V10.5H17.2333V9C17.2333 8.175 16.5283 7.5 15.6667 7.5C14.805 7.5 14.1 8.175 14.1 9V10.5H12.5333C10.7943 10.5 9.41566 11.85 9.41566 13.5L9.39999 34.5C9.39999 36.15 10.7943 37.5 12.5333 37.5H34.4667C36.19 37.5 37.6 36.15 37.6 34.5V13.5C37.6 11.85 36.19 10.5 34.4667 10.5H32.9V9C32.9 8.175 32.195 7.5 31.3333 7.5C30.4717 7.5 29.7667 8.175 29.7667 9ZM32.9 34.5H14.1C13.2383 34.5 12.5333 33.825 12.5333 33V18H34.4667V33C34.4667 33.825 33.7617 34.5 32.9 34.5Z" fill="#C3CAD9"/>
</svg>
